# xmcd CD database file
#
# Track frame offsets:
#	150
#	21764
#	40336
#	65238
#	81970
#	92366
#	106631
#	126202
#	141582
#	164462
#	183782
#	199213
#	222555
#	239312
#	260574
#	286536
#	304081
#	315576
#	331663
#
# Disc length: 4735 seconds
#
# Revision: 0
# Processed by: cddbd v1.5.1PL0 Copyright (c) Steve Scherf et al.
# Submitted via: Feurio! 1.68 - http://www.feurio.com
#
DISCID=0e127d13
DTITLE=Pcfhremix 04.05 (Vijay) - When Will Happiness Find Me Again
DYEAR=1900
DGENRE=Chamber Music
TTITLE0=Silkworm - Killing My Ass
TTITLE1=Kristin Hersh - Cleaner Light
TTITLE2=Havergal - Parachutes
TTITLE3=Force Vomit - Siti
TTITLE4=Marcos Valle - Os Grillos
TTITLE5=Mary Margaret O'Hara - My Friends Have
TTITLE6=16 Horsepower - Train Serenade
TTITLE7=The Evens - Around the Corner
TTITLE8=!!! - Hammerhead
TTITLE9=Mark Lanegan - One Way Street
TTITLE10=Parlor James - Snow Dove
TTITLE11=The Observatory - Ask
TTITLE12=Lisa Germano - Happiness
TTITLE13=Jimmy Dale Gilmore and Mudhoney - Buckskin Stallion Blues
TTITLE14=Annie Ross - Conversations on a Barstool
TTITLE15=Sonic Youth - Unmade Bed
TTITLE16=Mary Timony - Dr Cat
TTITLE17=Kimura Yumi - Always With Me
TTITLE18=Jaga Jazist - Airborne
EXTD=
EXTT0=
EXTT1=
EXTT2=
EXTT3=
EXTT4=
EXTT5=
EXTT6=
EXTT7=
EXTT8=
EXTT9=
EXTT10=
EXTT11=
EXTT12=
EXTT13=
EXTT14=
EXTT15=
EXTT16=
EXTT17=
EXTT18=
PLAYORDER=
